<svg xmlns="http://www.w3.org/2000/svg" width="512" height="512" viewBox="0 0 512 512"><path d="m427.93,39.31c8.82,4.49,11.33,13.5,15.16,21.48,5.07,10.55,8.32,21.82,9.95,33.31,1.99,13.95,2.26,28.08-.77,42.01-4.46,20.54-14.98,37.72-30.05,52.13-6.08,5.82-12.82,10.95-19.84,15.62-1.31.87-1.53,1.32-1.29,2.82,1.17,7.34,2.23,14.7,3.13,22.08,1.22,10.02,2.33,20.05,3.34,30.09.43,4.29.59,8.65.71,12.92.23,8.68.86,17.36,1.25,26.02.5,11.17,1.39,22.37,3.05,33.5,2.18,14.62,5.9,29.17,4.37,44.15-1.17,11.44-5.32,21.75-12.32,30.95-10.65,14-25.16,22.89-40.98,29.24-13.68,5.49-26.55,12.13-38.85,20.1-11.33,7.34-24.05,11.13-37.08,13.97-15.55,3.39-31.43,3.42-47.11,2.37-23.68-1.59-45.58-9.26-64.95-23.33-8.04-5.84-17.44-8.74-26.39-12.59-11.44-4.92-22.2-10.76-31.65-19.06-9.89-8.68-16.94-18.98-20.55-31.64-3.11-10.88-3.05-21.9-1.24-32.94,1.38-8.4,3.11-16.73,4.08-25.22,1.4-12.18,2.04-24.37,2.59-36.6.41-9.02.68-18.09,1.62-27.08,1.05-10.02,1.71-20.08,3.14-30.08,1.21-8.44,1.97-16.95,3.52-25.36.42-2.26-.21-3.89-2.53-5.44-17.26-11.58-31.63-25.9-40.8-44.87-6.25-12.92-9.62-26.5-9.95-40.93-.58-25.63,6.53-49.07,19.11-71.13,1.73-3.04,4.6-4.51,7.12-6.51h7.61c6.8,3.75,11.85,9.71,18.01,14.3,20.89,15.59,43.66,27.44,68.34,35.75,1.47.49,2.43.58,3.84-.1,22.9-10.91,47.37-14.62,72.41-15.03,11.63-.19,23.23,1.14,34.77,3.01,11.39,1.84,22.59,4.02,33.3,8.47,5.57,2.31,11.08,5.93,17.55,1.91,2.5-1.55,5.5-2.29,8.27-3.41,20.38-8.18,39.39-18.73,56.85-32.13,5.52-4.23,9.98-9.82,16.48-12.78h6.77Zm-170.33,407.45c2.75-.24,8.02.07,13.35-.51,13.34-1.47,26.06-4.49,37.98-10.87,9.96-5.33,18.66-12.88,29.2-17.09,9.33-3.73,18.71-7.36,27.55-12.12,8.76-4.71,16.4-10.88,21.42-19.68,5.9-10.36,5.58-21.68,3.4-32.75-2.56-12.99-4.38-26.05-5.57-39.18-.9-9.98-1.23-20.04-1.68-30.06-.53-11.83-1.49-23.58-2.56-35.37-1.07-11.84-2.6-23.59-4.34-35.33-2.08-14.11-3.88-28.25-7.51-42.09-5.41-20.65-16.49-37.54-33.65-50.15-18.47-13.57-39.97-18.87-62.35-20.28-9.08-.57-18.21-1.44-27.51-.52-10.59,1.04-21.09,2.11-31.46,4.52-21.78,5.07-40.63,14.99-54.51,33.04-9.29,12.07-14.99,25.83-18.05,40.64-2.61,12.63-4.16,25.45-6.17,38.18-2.05,12.97-3.4,26-4.79,39.03-1.34,12.44-2.09,24.96-2.55,37.46-.35,9.48-1.05,18.92-1.63,28.37-.79,12.73-3.63,25.1-5.4,37.65-1.5,10.59.19,20.14,5.78,29.21,5.53,8.97,13.94,14.4,22.9,19.13,8.33,4.4,17.28,7.45,25.89,11.22,9.44,4.12,17.45,10.8,26.43,15.74,16.56,9.12,34.5,12.62,55.84,11.84Zm138.57-270.16c10.36-7.36,18.22-16.42,24.01-27.08,6.85-12.61,9.63-26.12,8.77-40.66-.69-11.75-3.32-22.8-7.49-33.68-.88-2.3-1.35-2.65-3.34-1.13-3.48,2.65-7.18,5.03-10.78,7.53-14.07,9.79-29.35,17.36-44.96,24.27-3.17,1.4-3.37,2.26-.87,4.52,9.66,8.75,17.15,19.18,23.03,30.75,5.64,11.11,9.46,22.88,11.63,35.46ZM82.91,113.86c-.66,4.37-.05,9.61,1.08,14.55,3.88,16.88,12.15,31.33,25.37,42.79,6.45,5.59,6.3,5.65,8.25-2.54,5.12-21.59,15.24-40.5,30.7-56.47,4.94-5.1,4.95-4.9-1.88-7.75-18.19-7.59-35.11-17.41-50.88-29.22-3.41-2.56-4.22-2.55-5.6,1.54-3.97,11.77-7.5,23.65-7.04,37.11Z"/><path d="m257.68,350.52c-20.74-.08-36.49-6.77-50.73-17.62-10.09-7.69-13.95-20.78-9.91-33.2,8.01-24.58,15.86-49.21,23.78-73.83,7.12-22.13,14.25-44.24,21.33-66.38,1.03-3.24,1.77-6.58,3.64-9.48,3.47-5.38,9.03-4.61,14.01-4.01,4.21.51,6.94,3.85,8.26,7.92,7.37,22.81,14.69,45.64,22.01,68.48,7.96,24.82,15.8,49.67,23.87,74.45,3.46,10.63,3.82,20.83-2.94,30.33-3.35,4.72-8.22,7.86-13.06,10.74-13.16,7.82-27.23,12.88-40.26,12.6Zm-1.06-149.31c-1.41,1.3-1.69,2.32-2.03,3.37-3.9,12.15-7.84,24.28-11.76,36.42-7.26,22.45-14.48,44.91-21.81,67.34-.66,2.01.26,3.52,1.4,4.38,9.31,7.04,19.67,11.97,31.47,12.31,12.88.37,24.38-4.32,34.83-11.64,2.31-1.62,2.57-3.69,1.61-6.57-5.86-17.65-11.48-35.37-17.11-53.09-5.52-17.33-10.96-34.69-16.59-52.52Z"/><path d="m263.86,399.42c.72-18.15,16.56-32.36,34.3-31.13,6.64.46,11.48,6.22,11.48,12.92,0,5.17-5.46,12.1-12.09,12.41-4.93.23-8.46,3.06-8.21,7.38.37,6.51-7.43,13.64-13.71,13.01-6.93-.7-11.75-5.72-11.76-13.32,0-.42,0-.84,0-1.27Z"/><path d="m247.79,399.71c0,9.38-5.01,14.81-13.68,14.13-6.17-.48-9.96-4.54-11.65-13.01-1-5-2.93-6.96-7.74-7.22-7.21-.39-11.73-5.72-11.89-13.24-.13-6.04,6.34-12.26,12.3-12.25,17.34.03,33.8,14.98,32.67,31.58Z"/><path d="m182.67,265.79c.7,8.48-6.5,12.51-12.55,12.74-6.97.27-12.42-5.93-12.76-12.92-.34-6.92,5.4-12.32,12.6-12.35,7.61-.04,12.66,4.95,12.72,12.53Z"/><path d="m341.84,253.26c7.51.02,12.5,5.23,12.53,12.92.03,7.87-7.06,12.21-12.71,12.4-6.54.23-12.78-6.39-12.67-13.18.11-7.1,6.5-13.16,12.86-12.14Z"/></svg>