<svg xmlns="http://www.w3.org/2000/svg" width="512" height="512" viewBox="0 0 512 512"><title>famicons-v5_logos</title><path d="m39.14,300.81c0-28.96-.4-57.92.17-86.86.28-14.29,6.35-26.87,15.17-38.17,9.28-11.9,22.51-18.64,34.49-26.94,26.89-18.64,54.1-36.82,81.17-55.2,12.42-8.43,24.31-17.77,37.33-25.14,26.93-15.25,53.25-11.85,78.33,5.2,22.33,15.19,44.62,30.45,66.94,45.65,21.1,14.36,42.47,28.33,63.26,43.12,16,11.38,26.27,26.72,28.93,46.78.64,4.84.59,9.59.63,14.37.04,4.71-5.16,10.16-10.01,11.25-5.6,1.26-11.47-1.32-14.01-6.25-1.5-2.92-2.45-5.96-2.34-9.38.49-15.59-6.94-27.26-19.22-35.77-27.23-18.89-54.75-37.36-82.18-55.97-17.81-12.08-35.3-24.7-53.63-35.94-15.45-9.47-31.7-8.44-46.82,1.68-25.5,17.06-50.81,34.38-76.17,51.65-19.05,12.97-38.04,26.03-57.05,39.06-10.81,7.4-16.45,18.12-18.73,30.6-.48,2.64.19,5.85.2,8.79.05,53.57.26,107.13-.01,160.69-.1,20.28,15.81,39.1,36.2,42.22,3.31.51,6.44.08,9.63.09,45.82.11,91.65.08,137.47.07,4.7,0,9.16.63,12.92,3.86,4.43,3.81,4.31,8.93,3.26,13.72-1.01,4.6-4.69,7.5-9.39,8.5-2.34.5-4.8.58-7.21.58-45.52.03-91.04-.18-136.56.15-13.38.1-25.79-2.59-37.34-9.06-18.12-10.15-29.09-25.77-34.01-45.79-1.44-5.87-1.51-11.89-1.51-17.9,0-26.56,0-53.11,0-79.67.04,0,.08,0,.12,0Z"/><path d="m473,337.43c-.13,20.76-7.36,38.93-19.86,55.3-18.25,23.91-42.24,40.26-69.17,52.65-6.48,2.98-12.97,6.4-20.25,7.12-8.34.83-15.35-3.62-22.53-6.73-15.76-6.82-30.49-15.62-43.8-26.45-17.08-13.89-31.8-30.08-39.83-50.9-10.55-27.36-7.92-54.01,8.95-78.18,11.91-17.07,29.05-25.74,50.17-26.23,16-.38,30.37,4.26,43.36,13.33,1.85,1.29,2.7,1.38,4.55.04,14.24-10.34,30.3-15.07,47.76-13.21,22.52,2.4,39.7,13.55,50.63,33.67,6.89,12.69,9.96,25.2,10.02,39.57Zm-194.88.68c0,2.27-.38,4.63.06,6.81,2.83,14.07,9.03,26.64,18.5,37.31,16.09,18.14,35.86,31.29,58.07,40.81,3.57,1.53,7.24,3.46,11.39,1.34,2.21-1.13,4.65-1.81,6.91-2.86,22.42-10.44,42.69-23.81,58.24-43.44,8.23-10.38,14.19-21.98,15.16-35.3,1-13.78-1.66-26.77-10.57-38.2-9.73-12.47-24.72-15.85-37.69-13.6-10.02,1.74-18.15,6.83-25.09,14.11-6.11,6.41-15.68,6.29-21.8-.12-2.37-2.49-4.81-4.91-7.71-6.85-17.55-11.74-39.85-10.41-52.76,3.92-9.09,10.09-12.84,22.5-12.72,36.07Z"/></svg>
