<svg xmlns="http://www.w3.org/2000/svg" width="512" height="512" viewBox="0 0 512 512"><path d="M303.31,164.3c20.09,0,40.21-.1,60.33,0a46.24,46.24,0,0,1,44.88,35c3.43,13.49.66,25.9-7,37.38Q358.39,301,315.36,365.27q-37.73,56.31-75.42,112.64c-3.72,5.57-8.33,9.26-15.33,8.83-8.14-.5-14.15-7.12-14.22-15.8-.1-12.79,0-25.59,0-38.38,0-46.86-.05-93.72.1-140.58,0-3.94-.85-5-4.88-4.93-18.23.25-36.46.14-54.69.1-32.69-.07-54.35-27.9-46-59.35q22-83.27,44.27-166.45A46.82,46.82,0,0,1,195,26.11c30.07-.11,60.13-.18,90.19,0C317.26,26.34,339,57,328.79,87.49c-8.06,24-16.32,48-24.49,72C303.8,160.94,302.89,162.34,303.31,164.3ZM241.08,420.8c1.43-2.07,2.14-3.06,2.82-4.07q34.16-51,68.29-101.89,31.6-47.18,63.26-94.3C379,215.28,380.7,210,377.64,204c-3.14-6.17-8.34-8.95-15.18-8.94q-39.34,0-78.7,0c-14.29,0-20.93-9.34-16.29-22.91q15.93-46.6,31.88-93.21c4.17-12.22-2.78-22-15.66-22.08q-43.91-.08-87.81,0c-9.35,0-14.83,4.31-17.26,13.42q-21.94,82.3-43.85,164.62c-3.38,12.67,3.43,21.56,16.52,21.58q36,0,72,0a25.44,25.44,0,0,1,6.18.51c7.49,1.88,11.62,7.83,11.62,16.57C241.08,322.17,241.08,370.79,241.08,420.8Z" /></svg>
