<svg xmlns="http://www.w3.org/2000/svg" width="512" height="512" viewBox="0 0 512 512"><title>famicons-v5_logos</title><path d="M207.67,388.23c0-31.49-.08-63,.11-94.47,0-4.05-1.11-4.92-5-4.88-19.47.2-38.94.14-58.41.08-34.23-.1-57.16-29.64-48.44-62.66q23.26-88.14,46.86-176.2c6.05-22.63,25.33-37.42,48.91-37.49q47.25-.13,94.48,0c34.69.14,57.85,32.52,46.79,65.3Q320,116.29,306.81,154.55c-1.26,3.61-.88,4.48,3.09,4.44,20.14-.17,40.29-.22,60.44,0a49,49,0,0,1,48.62,51c-.4,9.89-4.1,18.62-9.61,26.82q-63.63,94.71-127.09,189.53-22,32.85-44.09,65.69c-5.55,8.23-14.14,10.65-22,6.31-6.06-3.36-8.56-8.74-8.55-15.57Q207.72,435.48,207.67,388.23Z" /></svg>
