<svg xmlns="http://www.w3.org/2000/svg" width="512" height="512" viewBox="0 0 512 512"><title>famicons-v5_logos</title><path d="M499.9,45.36c-1.55.69-1.39,2.33-1.9,3.56-5.35,12.69-19,19.17-32,14.86-2.69-.89-4.17-.45-6.07,1.47q-25.62,25.83-51.47,51.4c-2.38,2.36-2.25,3.53,0,5.92,41.31,44.66,60.1,97.59,56,158.12-3.24,47.67-21.64,89.33-53.73,124.87-1.42,1.57-2.52,2.26-4.81,1.48a56.58,56.58,0,0,0-17.3-2.68c-14.41-.19-28.84-.76-43.23.35-32.43,2.5-60,30.2-62.23,62.59-.26,3.73-1.31,4.94-5.14,5.28a244.43,244.43,0,0,1-44.12-.13c-2.85-.26-3.62-1.2-3.87-3.94-3.18-35.29-29.18-61.49-64.45-63.82-17.65-1.17-35.62-2.46-53,1.4-7.39,1.64-10.77-.79-14.82-5.63C70,367.39,53.17,329.64,49.13,286.64q-8.85-94.33,55.54-164.21c2-2.14,2.36-3.27,0-5.56Q78.66,91.16,52.93,65.13c-1.76-1.77-3.12-2.31-5.68-1.47A25.63,25.63,0,0,1,13.83,45.13,26.06,26.06,0,0,1,35.28,13.28C49.85,10.86,63.72,21.89,65.17,37a19.56,19.56,0,0,1-1.33,9.79c-1.27,2.88-.35,4.46,1.66,6.46q25.82,25.6,51.39,51.47c2.51,2.56,3.83,2.33,6.4.17,76.53-64.34,189.67-64.47,266.06-.26,3,2.51,4.41,2.42,7.1-.32,16.89-17.18,34-34.15,51.05-51.15,1.77-1.76,2.76-3.08,1.77-6a25.74,25.74,0,0,1,16.73-33,26.12,26.12,0,0,1,32.91,17.9c.2.7-.08,1.63,1,1.86Zm-243.61,246q41.58,0,83.17,0a101.27,101.27,0,0,0,18-1.4c38.58-6.92,67.16-43,64.16-81-3.32-42.19-36-73.91-77-74.08q-88.17-.37-176.33,0c-51.39.29-88.33,50.63-73.87,100,10,34.2,40.11,56.29,77.3,56.5C199.88,291.47,228.09,291.35,256.29,291.35Zm.23,95.41a195.38,195.38,0,0,0,72.08-10.54,34.63,34.63,0,0,0,21.84-43.59c-5.93-18.18-25.39-27.8-43.81-22.27a170.9,170.9,0,0,1-100.51-.14c-18.31-5.54-37.87,4.25-43.73,22.47a34.74,34.74,0,0,0,22.41,43.67A199.3,199.3,0,0,0,256.52,386.76Z" /><path d="M86.26,499.91C81,496.67,76,493.35,74.39,486.72c-.69-2.92-.69-4.19,3-4.18q66,.18,132.09,0c3.34,0,3.75,1.22,3.1,3.88-1.74,7.09-6.77,11-13.18,13.49Z" /><path d="M312.58,499.91c-5.06-2.93-10-5.92-11.78-12.09-1.38-4.74-1.19-5.2,3.54-5.2,43.55,0,87.1.05,130.66-.08,4,0,4.45,1.06,3.41,4.58-2.08,7-7.09,10.65-13.63,12.79Z" /><path d="M143.23,465c-21.38,0-42.76-.09-64.14.08-3.74,0-4.45-.67-3.48-4.42,5.69-21.94,25.64-38.29,48.27-38.82q19.47-.45,39,0c22.9.53,42.88,16.9,48.56,39.1,1,3.8-.35,4.14-3.55,4.12C186.31,465,164.77,465,143.23,465Z" /><path d="M369.91,465c-21.54,0-43.08-.11-64.61.09-4.31,0-4.54-1.19-3.51-4.87,6.29-22.45,25.83-38,49.07-38.42,12.82-.24,25.66-.27,38.48.05,22.73.58,42.85,17.4,48.15,39.54.78,3.28,0,3.67-3,3.66C413,465,391.45,465,369.91,465Z" /><path d="M256.44,273.75c-29.31,0-58.64.4-87.94-.13-24.67-.44-43.06-12.36-53.68-34.48-10.54-22-8.13-43.53,6.52-63.07,11.61-15.48,27.66-23.75,47-23.85,58.79-.32,117.58-.49,176.36,0a60.1,60.1,0,0,1,59.37,57.08c1.74,32.09-20.63,59.39-52.55,64a70.46,70.46,0,0,1-10,.41Q299,273.77,256.44,273.75Zm52.37-69.49c-18-.08-32.64,13.27-34.82,31.72-.76,6.43,2.15,11,7.5,11.75,5.19.73,9.09-3.07,9.89-9.64,1.21-10,8.28-16.57,17.54-16.38s16.07,6.92,17,16.95c.55,5.78,4.46,9.56,9.43,9.11s8-4.37,7.9-10C342.87,219.41,327.37,204.35,308.81,204.26Zm-103.91,0C186,203.94,170,219.3,169.63,238c-.07,4,1.25,7.15,4.93,9,5.86,2.86,11.79-1.19,12.44-8.42.79-8.68,6.08-14.9,13.91-16.36,10.83-2,19.09,4.61,20.71,16.63.8,5.91,4.62,9.52,9.54,9,5.23-.54,8.4-5,7.87-11C237.4,218.4,222.88,204.58,204.9,204.27Z" /><path d="M207,364.6A85.14,85.14,0,0,1,190.29,360c-9.66-3.62-14.25-12.9-11.1-22.07,3.23-9.4,12.68-13.84,22.67-10.68,8.59,2.73,8.48,2.72,7.49,11.81C208.42,347.51,207.76,356,207,364.6Z" /><path d="M334.51,345.26c-.29,5.7-3.6,11.05-10.32,14a86,86,0,0,1-15.31,4.79c-2,.48-3,.69-3.21-2-.73-9.76-1.67-19.51-2.71-29.25-.25-2.37.5-3.43,2.73-4,5.15-1.22,10-3.79,15.66-2.18C329.14,328.89,334.54,335.57,334.51,345.26Z" /><path d="M247.83,352c0,4.59-.19,9.18.07,13.76.17,3.11-.9,3.69-3.8,3.36-5.65-.66-11.34-1-17-1.27-2.25-.1-2.94-.77-2.7-3.11,1-9.59,1.87-19.2,2.67-28.81.18-2.19.82-3,3.19-2.73,5,.57,10.08,1,15.13,1.15,2.25.08,2.53,1.09,2.49,2.94C247.77,342.19,247.83,347.09,247.83,352Z" /><path d="M265.11,351.56c0-4.74.12-9.5-.05-14.24-.08-2.31.74-2.91,2.95-3,4.89-.19,9.8-.57,14.66-1.14,2.32-.27,3.05.43,3.23,2.68.8,9.61,1.72,19.22,2.65,28.82.17,1.74.29,3-2.14,3.13-6.32.32-12.63.8-18.93,1.38-2.55.24-2.38-1.27-2.37-2.92C265.13,361.38,265.11,356.47,265.11,351.56Z" /></svg>
