<svg xmlns="http://www.w3.org/2000/svg" width="512" height="512" viewBox="0 0 512 512"><title>famicons-v5_logos</title><path d="m241.9,256.32c0,49.03.07,98.06-.06,147.09-.02,8.4-1.06,16.79-4.03,24.76-5.46,14.65-16.73,22.34-31.32,26.14-7.6,1.98-15.35,2.06-23.08,2.09-24.44.08-48.89-.14-73.33.03-10.91.08-21.28-1.64-31.19-6.37-13.14-6.26-19.16-17.43-22.09-30.91-1.37-6.27-1.3-12.62-1.3-18.98.02-96.03.06-192.05-.05-288.08-.01-10.27.53-20.38,4.59-29.9,5.92-13.85,16.82-21.37,31.4-24.44,6.96-1.47,13.94-1.93,20.94-1.98,24.15-.16,48.3-.18,72.46-.01,12.29.09,24.52,1.41,35.5,7.49,11.62,6.43,17.49,16.92,19.89,29.79,2.43,13.06,1.62,26.2,1.65,39.31.1,41.32.04,82.64.04,123.96Zm-158.01-.27s-.03,0-.04,0c0,51.36,0,102.72,0,154.08,0,11.96,7.61,17.71,17.88,17.84,29.82.39,59.65.13,89.48.23,2.91.01,5.76-.41,8.47-1.09,6.1-1.54,11.31-4.33,12.64-11.45.92-4.92,1.63-9.84,1.63-14.84.02-96.46.02-192.93-.02-289.39,0-4.3-.17-8.67-.93-12.88-.64-3.54-1.87-6.96-4.92-9.59-4.67-4.03-10.45-4.78-15.89-4.76-31.2.09-62.43-1.48-93.61.77-9.16.66-14.57,6.8-14.6,15.7-.16,51.8-.08,103.59-.08,155.39Z"/><path d="m269.85,148.68c0-16.59-.76-33.22.19-49.75,1.2-21.04,12.82-36.9,35.38-41.19,10.17-1.93,20.34-2.03,30.55-1.99,23.85.1,47.72-.79,71.54.47,13.45.71,26.5,3.56,36.47,13.83,6.57,6.76,10.21,15.11,10.93,24.36,2.7,34.65,1.45,69.36.73,104.04-.23,10.85-3.7,21.38-11.65,29.45-6.72,6.82-15.3,10.5-24.61,12.44-4.88,1.02-9.78,1.78-14.81,1.77-29.83-.05-59.71,1.11-89.46-.37-22.54-1.13-39.91-10.85-44.49-37.41-.73-4.21-.67-8.31-.71-12.45-.14-14.4-.05-28.81-.05-43.21Zm27.94,0c0,16.14,0,32.28,0,48.42,0,7.46,3.73,12.86,10.73,15.09,5.78,1.84,11.74,1.98,17.8,1.86,27.83-.56,55.68.72,83.52-.7,11.29-.57,17.92-6.28,18.01-17.47.25-31.41.19-62.82.02-94.23-.05-9.21-4.57-14.69-12.92-16.5-3.47-.75-7.1-1.09-10.66-1.1-24.14-.1-48.28-.12-72.42-.05-6.18.02-12.34.09-18.54.7-10.31,1.01-15.62,8.09-15.56,17.3.11,15.56.03,31.12.03,46.68Z"/><path d="m269.84,366.36c0-19.17-.95-34.81.23-50.29,1.58-20.63,10.15-37.16,34.3-43.99,5.17-1.46,10.77-1.91,16.17-1.95,26.92-.19,53.85-.37,80.76.07,9.28.15,18.7.97,27.53,4.72,14.18,6.03,21.99,17.09,25.23,31.7,1.56,7.02,2.14,14.21,2.15,21.42.03,23.43.06,46.86,0,70.29-.03,9.61-.83,19.24-4.09,28.29-5.45,15.1-16.77,23.82-32.15,27.73-7.32,1.87-14.76,2.01-22.2,2.04-24.3.09-48.6-.11-72.91.05-12.69.08-24.66-1.94-35.54-8.98-11.57-7.49-16.63-18.84-18.48-31.68-2.53-17.58-.25-35.35-1-49.43Zm91.93,61.72s0,.01,0,.02c15.42,0,30.85.08,46.27-.03,9.57-.07,16.47-4.93,18.54-13.21.9-3.57,1.3-7.36,1.32-11.05.11-27.07,0-54.13.13-81.2.02-3.36-.6-6.64-1.21-9.79-1.33-6.91-5.15-11.8-12.83-13.22-5.24-.97-10.54-1.24-15.72-1.41-15.55-.52-31.14-.36-46.7-.13-12.29.18-24.59-.81-36.88.76-12.71,1.62-16.33,7.55-16.62,18.29-.82,30.53-.39,61.11-.24,91.66.06,11.6,8.17,19.27,19.85,19.31,14.7.04,29.39.01,44.09.01Z"/></svg>