<svg xmlns="http://www.w3.org/2000/svg" width="512" height="512" viewBox="0 0 512 512"><path d="M99,494.87c-.69-1.56-2.35-1.29-3.55-1.72-13.08-4.62-21.1-16.12-21.68-30-.79-18.88,3.41-36,16.29-50.35a43.08,43.08,0,0,1,9.3-8.39c3.1-1.88,2.46-3.23.47-5.53C84,380.51,71.24,360.16,63.35,337.23Q22.81,219.39,104.5,125a31.75,31.75,0,0,1,2.86-3c1.41-1.25,1.15-2.17-.1-3.4C98.66,110,90,101.48,81.61,92.8c-2.16-2.23-3.51-.62-5.19.25-22.17,11.47-49.21.39-56.58-23.2A39.79,39.79,0,1,1,93.13,76c-1.79,3.38-1.21,5,1.26,7.32,7.94,7.63,15.7,15.46,23.39,23.36,2,2,3.12,2.39,5.51.38,41.06-34.5,88.56-50.92,142-48.79,46.39,1.84,87.62,18.05,123.28,47.91,3.23,2.71,4.84,2.54,7.63-.42,7.57-8,15.47-15.7,23.32-23.42,1.64-1.61,2.16-2.7.93-5.06-7.9-15.16-7.14-30,3.33-43.61,10-13,23.79-17.92,39.67-14.38C480.08,23,490.44,33.69,494,50.56c.07.36.53.64.81.95v14c-1.22.32-.93,1.46-1.18,2.27-8.05,26.17-33.56,37.07-58.06,24.68-2.18-1.1-3.2-.62-4.68.89C423.43,101,416,108.69,408.16,116c-3.45,3.21-3.65,4.94-.27,8.52,55.55,58.73,70.71,148.36,38,222.38a205,205,0,0,1-32.81,52.08c-2.18,2.51-2.11,3.68.66,5.48a48.62,48.62,0,0,1,9.9,9.12c12.67,14.57,16.48,31.79,15.5,50.61A32.18,32.18,0,0,1,417,493.37c-1.68.55-3.74-.19-5.05,1.5H305.78c-.3-.31-.56-.79-.92-.88-11.84-3.18-19.72-10.54-23.23-22.3-.75-2.53-2.26-2.1-3.88-1.93a190.23,190.23,0,0,1-42.6-.06c-2.55-.3-3.35.64-4.07,3A31.48,31.48,0,0,1,219,489.2c-4.16,3-9.08,4-13.76,5.67ZM447.2,266.16a204.13,204.13,0,0,0-3.89-39.77c-20.61-99-112.65-164.2-212.78-150.83C143.1,87.24,74.29,158.85,66.7,247.06,62.2,299.32,77,346,110.28,386.72c4.41,5.4,8.42,9.84,15.94,5.85a5.2,5.2,0,0,1,1.84-.23c15.17-1.64,30.44-1.45,45.57-.5,31.62,2,56,26.61,58.62,58.21.23,2.74,1.09,3.63,3.81,3.88a223.87,223.87,0,0,0,40.44,0c3.19-.29,4-1.32,4.21-4.42,1.83-28.43,25.44-53.56,53.58-57.21,13.3-1.72,26.66-.47,40-.82a53.25,53.25,0,0,1,17,2.14c3.2,1,5,.35,7.13-2.06C430.53,355.39,446.37,313,447.2,266.16ZM153.38,447.24c19.54,0,39.08-.1,58.62.09,3.73,0,4-1.2,3.25-4.23-4.47-17.9-20.48-32.61-38.79-34.9-14.35-1.8-28.86-1.51-43.19-.4-20.78,1.61-36.81,15.94-42,35.28-1,3.85,0,4.26,3.48,4.23C114.3,447.17,133.84,447.24,153.38,447.24Zm206.48,0c19.69,0,39.38-.06,59.06.07,3.07,0,3.66-.75,3-3.65-4.33-18.14-20.37-33.12-38.8-35.45-14.34-1.82-28.85-1.48-43.17-.43-20.66,1.51-36.92,15.84-42.1,35.15-.91,3.39-.43,4.45,3.44,4.41C320.78,447.13,340.32,447.24,359.86,447.24ZM153,463.13c-19.87,0-39.74.08-59.6-.07-3.61,0-4.15,1-3.14,4.21,2.15,6.86,7.79,11.62,15.1,11.64q48,.15,95.93,0A15.6,15.6,0,0,0,216,468c1-3.15,1.14-5-3.36-4.92C192.77,463.26,172.9,463.13,153,463.13Zm206.68,0c-19.86,0-39.73.11-59.59-.09-4.16,0-4.22,1.56-3.24,4.64a15.75,15.75,0,0,0,15,11.23q48,.13,95.91,0c7.08,0,12.69-4.72,14.87-11.33,1.1-3.35.65-4.57-3.31-4.53C399.45,463.23,379.58,463.13,359.71,463.13Zm71.63-405.3a23.68,23.68,0,0,0,23.82,23.94,23.83,23.83,0,1,0-23.82-23.94ZM81.67,58.6A23.83,23.83,0,0,0,58.32,34.11C45.49,33.8,34.59,44.22,34.08,57.32S44.23,81.44,57.51,81.75A23.71,23.71,0,0,0,81.67,58.6Z" /><path d="M256.6,145.41c26.38,0,52.76-.15,79.14,0,34.64.25,62.51,22.88,70.09,56.59,9.58,42.55-23.26,85.48-66.82,86-54.93.62-109.87.52-164.8,0-36.14-.33-66.39-30.41-68.55-66.8s23.82-69.17,59.29-74.87a92.34,92.34,0,0,1,14.84-1Q218.19,145.39,256.6,145.41Zm0,15.9H178.85a63.25,63.25,0,0,0-12.5,1c-27.63,5.53-47.32,31.38-44.77,58.87,2.68,28.8,25.81,51,54.29,51.1q81,.39,162,0c28.89-.18,53.13-24.93,53.61-53.68.54-32.12-24-57.13-56.22-57.23C309,161.24,282.8,161.31,256.58,161.31Z" /><path d="M255,375.68a177.59,177.59,0,0,1-64.68-9.91A31.42,31.42,0,0,1,170.5,326.5c5.32-16.68,22.51-26,39.08-21a160.94,160.94,0,0,0,92.94.34,31.73,31.73,0,0,1,39.22,20.93c5.27,16.67-3.8,34-20.69,39.63C299.87,373.38,283.87,375.69,255,375.68Zm-41.3-46.61c2.12-4.6-.66-6.68-5.62-7.42-1.51-.22-3-.89-4.46-1.15a15.79,15.79,0,0,0-17.86,10.61,15.6,15.6,0,0,0,8.66,19.26c4.53,1.88,9.38,3,14.07,4.51,2.16.69,3,.05,3.18-2.31C212.21,345,213,337.49,213.7,329.07Zm98.14-8.88c-4.1.08-7.76,1.9-11.62,2.95-1.72.47-1.25,1.84-1.15,3,.75,8.79,1.55,17.57,2.23,26.36.17,2.24.94,3.06,3.19,2.33,4.55-1.48,9.23-2.6,13.66-4.35a15.17,15.17,0,0,0,9.43-17.2C326,325.49,319.59,320.17,311.84,320.19Zm-63.26,23.62c0-4.35-.1-8.69,0-13,.07-2.18-.66-3-2.84-3.15-4.49-.26-9-.6-13.43-1.15-2.29-.28-2.59.91-2.73,2.63-.74,8.8-1.43,17.62-2.33,26.41-.23,2.25.73,2.58,2.53,2.7,5.41.38,10.82.79,16.22,1.33,2.26.23,2.58-.88,2.55-2.71C248.54,352.49,248.58,348.15,248.58,343.81Zm15.93-.06c0,4.35,0,8.69,0,13,0,1.72.1,3,2.47,2.77,5.55-.57,11.12-1,16.69-1.39,1.71-.12,2.33-.61,2.13-2.55-.93-8.95-1.69-17.92-2.44-26.88-.14-1.73-.66-2.48-2.55-2.27-4.47.49-9,.86-13.44,1.13-2.12.13-3,.87-2.89,3.11C264.62,335.05,264.5,339.4,264.51,343.75Z" /><path d="M209.5,208.92c16.39.21,30.4,13.7,31.05,29.88.23,5.74-2.72,9.56-7.56,9.78-4.61.21-7.74-3.07-8.28-8.66-.85-8.85-7.4-15.12-15.83-15.14s-15,6.22-15.84,15.06c-.53,5.59-3.66,8.9-8.26,8.74-4.83-.17-7.75-3.91-7.59-9.7C177.66,222.21,192.23,208.7,209.5,208.92Z" /><path d="M304.29,208.91c16.55,0,30.61,13.17,31.43,29.37.32,6.19-2.44,10-7.39,10.29-4.74.24-7.79-3-8.44-9.07-1.18-10.95-11.65-17.64-21.56-13.6-6.13,2.5-9.37,7.34-10.1,13.9-.67,6-3.85,9.18-8.59,8.74-5-.47-7.78-4.6-7.21-10.55A31.91,31.91,0,0,1,304.29,208.91Z" /></svg>
