<svg xmlns="http://www.w3.org/2000/svg" width="512" height="512" viewBox="0 0 512 512"><title>famicons-v5_logos</title><path d="m441.65,167.65c0,43.26.25,86.51-.12,129.77-.16,18.45-2.62,36.69-8.96,54.25-6.86,19-17.11,35.96-30.09,51.28-15.03,17.75-32.39,32.86-52.22,45.14-20.77,12.86-43,22.24-66.46,28.85-2.75.78-5.48,1.64-8.22,2.44-2.67.77-3.91-.14-3.9-3.04.01-3.77-.35-7.55-.35-11.32.03-25.1.12-50.21.15-75.31,0-3-.11-6.02-.47-9-.56-4.73,1.7-7.4,5.9-8.85,11.75-4.06,22.86-9.44,33.28-16.22,20.8-13.53,35.05-31.86,41.78-56.02,3.9-14.01,4.71-28.22,5.52-42.64,1.32-23.26.32-46.49.79-69.73.1-4.94-.03-4.99-4.5-2.72-26.09,13.25-52.17,26.51-78.24,39.78-4.07,2.07-4.47,1.89-4.47-2.83-.03-20.57-.75-41.17.21-61.7.87-18.6,8.64-34.46,23.21-46.79,18.87-15.99,40.72-26.95,62.52-38.08,20.02-10.22,39.92-20.68,59.88-31.01,6.71-3.47,13.44-6.88,20.17-10.31,4.45-2.26,4.6-2.17,4.61,2.93,0,43.71,0,87.42,0,131.13Z"/><path d="m153.97,226.29c0,13-.47,26.03.1,39.01,1.13,25.92,7.73,50.2,24.73,70.53,7.92,9.48,17.53,17.26,28.39,23.32,9.53,5.32,19.46,9.8,29.71,13.53,2.58.94,3.71,2.44,3.71,5.36.04,32.66.14,65.32.41,97.98.03,3.78-1.92,4.27-4.43,3.45-14.65-4.78-29.67-8.38-43.7-15.12-13.45-6.46-26.69-13.14-39.06-21.54-17.89-12.15-33.38-26.78-47.08-43.5-13.48-16.45-23.54-34.72-30.17-54.83-2.59-7.85-4.73-16.01-5.14-24.32-2.2-44.08-.64-88.2-.91-132.3-.3-50.36-.06-100.73-.05-151.09q0-5.32,4.97-2.84c19.16,9.63,38.21,19.46,57.07,29.67,15.71,8.5,31.83,16.24,47.66,24.52,15.33,8.01,29.79,17.35,42.22,29.53,9.79,9.59,14.95,21.42,16.89,34.87,2.52,17.52,2.27,35.14,1.61,52.72-.23,5.98-.68,11.97-.71,17.98,0,2.1-.62,2.8-2.67,1.76-3.57-1.8-7.25-3.39-10.77-5.27-13.28-7.11-26.81-13.76-40.19-20.67-9.57-4.94-19.29-9.59-28.7-14.8-3.41-1.88-3.96-1.51-3.94,2.14.1,13.31.04,26.61.04,39.92Z"/></svg>
